<svg width="264" height="264" viewBox="0 0 264 264" fill="none" xmlns="http://www.w3.org/2000/svg">
<path fill-rule="evenodd" clip-rule="evenodd" d="M145.216 24.8793C110.697 24.3354 74.576 25.9383 48.4628 45.9852C20.754 67.2572 8.68896 99.4468 5.85335 131.868C2.74026 167.461 -0.447357 211.327 32.1753 232.207C64.1432 252.668 106.166 225.796 145.216 221.066C175.13 217.443 208.444 225.814 231.113 208.113C254.645 189.737 258.138 159.664 259.445 131.868C260.827 102.464 261.4 70.3419 238.594 48.9813C215.414 27.2708 178.908 25.4103 145.216 24.8793Z" fill="#EAECF0"/>
<path d="M203.682 142.072C209.087 139.576 224.783 142.562 222.58 159.124" stroke="#667085" stroke-width="4" stroke-linecap="round"/>
<path d="M133.524 126.705C128.07 132.236 103.545 138.84 92.5761 122.217" stroke="#667085" stroke-width="4" stroke-linecap="round"/>
<path d="M125.287 71.0261C124.592 44.4091 146.772 22.1917 173.229 25.188C193.192 27.4488 208.864 43.6264 209.623 63.7021C211.681 118.173 207.429 158.21 193.192 210.508C187.893 229.975 168.874 242.196 148.826 239.925C122.293 236.92 105.472 210.387 112.138 184.53C122.242 145.335 126.355 111.926 125.287 71.0261Z" fill="#3F3D56" fill-opacity="0.82"/>
<path d="M201.97 54.9057C201.975 54.6912 202.018 54.4684 202.097 54.2689C202.802 52.4904 205.412 52.9086 205.526 54.8185C209.256 117.554 204.744 160.745 189.385 210.489C184.671 225.757 170.16 235.657 154.182 235.449L150.086 235.396C125.279 235.074 107.466 212.538 125.999 196.046C154.153 170.991 199.945 149.494 201.97 54.9057Z" fill="#262626" fill-opacity="0.5"/>
<path d="M202.47 54.9164C202.474 54.7581 202.506 54.5944 202.562 54.4533C203.07 53.1715 204.945 53.4727 205.026 54.8482C208.754 117.535 204.245 160.665 188.907 210.342C184.263 225.383 169.959 235.154 154.189 234.949L150.092 234.896C137.826 234.737 127.336 229.084 122.204 221.505C119.642 217.72 118.42 213.466 118.952 209.168C119.483 204.872 121.772 200.477 126.332 196.419C130.257 192.926 134.542 189.491 139.015 185.906C150.495 176.704 163.202 166.519 174.183 151.851C189.475 131.425 201.456 102.299 202.47 54.9164Z" stroke="#262626" stroke-opacity="0.5"/>
<circle cx="4.32911" cy="4.32911" r="4.32911" transform="matrix(-0.99527 -0.0971435 -0.0971435 0.99527 169.732 52.9669)" fill="white"/>
<circle cx="4.32911" cy="4.32911" r="4.32911" transform="matrix(-0.99527 -0.0971435 -0.0971435 0.99527 150.982 74.8857)" fill="white"/>
<circle cx="4.32911" cy="4.32911" r="4.32911" transform="matrix(-0.99527 -0.0971435 -0.0971435 0.99527 191.173 75.6885)" fill="white"/>
<circle cx="4.32911" cy="4.32911" r="4.32911" transform="matrix(0.961179 0.275925 0.275925 -0.961179 147.101 210.252)" fill="white"/>
<circle cx="4.32911" cy="4.32911" r="4.32911" transform="matrix(0.961179 0.275925 0.275925 -0.961179 169.513 192.095)" fill="white"/>
<circle cx="4.32911" cy="4.32911" r="4.32911" transform="matrix(0.961179 0.275925 0.275925 -0.961179 130.133 184.02)" fill="white"/>
<path d="M127.033 155.42C126.308 158.576 128.463 161.686 131.678 162.068L185.337 168.438C188.019 168.756 190.528 167.046 191.18 164.426C196.349 143.654 197.933 130.15 197.732 109.311C197.706 106.616 195.668 104.373 192.992 104.055L139.366 97.6895C136.135 97.3059 133.305 99.8516 133.284 103.106C133.161 122.941 131.475 136.088 127.033 155.42Z" fill="#EAECF0"/>
<path d="M153.726 117.247C149.661 121.597 145.326 120.516 143.018 115.797" stroke="#667085" stroke-width="2.70149" stroke-linecap="round"/>
<path d="M185.713 121.581C181.647 125.93 177.313 124.849 175.005 120.13" stroke="#667085" stroke-width="2.70149" stroke-linecap="round"/>
<path d="M154.408 137.172C158.843 133.199 163.065 134.66 164.946 139.565" stroke="#667085" stroke-width="2.70149" stroke-linecap="round"/>
<path d="M184.829 126.831L183.179 131.758C182.445 133.948 184.357 136.111 186.621 135.651C188.884 135.191 189.801 132.454 188.271 130.724L184.829 126.831Z" fill="white"/>
<rect width="32" height="7" transform="matrix(-0.152101 -0.988365 -0.988365 0.152101 106.517 141.466)" fill="#262626" fill-opacity="0.5"/>
<rect x="-0.570233" y="-0.418132" width="31" height="6" transform="matrix(-0.152101 -0.988365 -0.988365 0.152101 105.446 140.547)" stroke="#262626" stroke-opacity="0.5"/>
<path d="M88.7269 170.509L74.0938 147.966L79.5582 143.591L97.6221 169.14L88.7269 170.509Z" fill="#262626" fill-opacity="0.5"/>
<path d="M96.7473 168.769L88.9704 169.966L74.7596 148.073L79.4563 144.313L96.7473 168.769Z" stroke="#262626" stroke-opacity="0.5"/>
<path d="M97.6224 169.14L107.732 142.789L101.205 140.259L88.7272 170.509L97.6224 169.14Z" fill="#262626" fill-opacity="0.5"/>
<path d="M89.5276 169.88L97.2595 168.69L107.087 143.075L101.481 140.902L89.5276 169.88Z" stroke="#262626" stroke-opacity="0.5"/>
<rect width="32" height="7" transform="matrix(-0.152101 -0.988365 -0.988365 0.152101 79.8306 145.572)" fill="#262626" fill-opacity="0.5"/>
<rect x="-0.570233" y="-0.418132" width="31" height="6" transform="matrix(-0.152101 -0.988365 -0.988365 0.152101 78.7603 144.654)" stroke="#262626" stroke-opacity="0.5"/>
<rect width="32" height="9" transform="matrix(-0.152101 -0.988365 -0.988365 0.152101 101.881 196.815)" fill="#262626" fill-opacity="0.5"/>
<rect x="-0.570233" y="-0.418132" width="31" height="8" transform="matrix(-0.152101 -0.988365 -0.988365 0.152101 100.811 195.896)" stroke="#262626" stroke-opacity="0.5"/>
<rect width="9" height="13" rx="1" transform="matrix(-0.152101 -0.988365 -0.988365 0.152101 104.923 203.429)" fill="#667085"/>
<rect width="49" height="7" rx="3.5" transform="matrix(-0.988365 0.152101 0.152101 0.988365 108.264 106.796)" fill="#667085"/>
<rect width="49" height="7" rx="3.5" transform="matrix(-0.988365 0.152101 0.152101 0.988365 113.131 138.424)" fill="#667085"/>
<path d="M60.8009 100.709C52.8008 104.21 48.8008 110.209 49.8009 119.709" stroke="#3F3D56" stroke-opacity="0.82" stroke-width="3" stroke-linecap="round"/>
<path d="M47.2131 99.2962C43.2131 101.796 40.7132 110.296 41.7131 116.296" stroke="#3F3D56" stroke-opacity="0.82" stroke-width="3" stroke-linecap="round"/>
</svg>
