<svg width="37" height="37" viewBox="0 0 37 37" fill="none" xmlns="http://www.w3.org/2000/svg">
<circle cx="18.5" cy="18.5" r="18.5" fill="white"/>
<path d="M15 8V7.25C14.5858 7.25 14.25 7.58579 14.25 8H15ZM23 8H23.75C23.75 7.58579 23.4142 7.25 23 7.25V8ZM19.75 21V20.25H18.25V21H19.75ZM18.25 25V25.75H19.75V25H18.25ZM21 23.75H21.75V22.25H21V23.75ZM17 22.25H16.25V23.75H17V22.25ZM16.4679 17.0967L16.943 16.5163L16.4679 17.0967ZM21.5321 17.0967L21.057 16.5163L21.5321 17.0967ZM25.25 22.5V26H26.75V22.5H25.25ZM24 27.25H14V28.75H24V27.25ZM12.75 26V22.5H11.25V26H12.75ZM14 27.25C13.3096 27.25 12.75 26.6904 12.75 26H11.25C11.25 27.5188 12.4812 28.75 14 28.75V27.25ZM25.25 26C25.25 26.6904 24.6904 27.25 24 27.25V28.75C25.5188 28.75 26.75 27.5188 26.75 26H25.25ZM15 8.75H23V7.25H15V8.75ZM22.25 8V12H23.75V8H22.25ZM23 11.25H15V12.75H23V11.25ZM15.75 12V8H14.25V12H15.75ZM18.25 21V23H19.75V21H18.25ZM18.25 23L18.25 25H19.75L19.75 23H18.25ZM21 22.25H19V23.75H21V22.25ZM19 22.25H17V23.75H19V22.25ZM19 17.25C18.2187 17.25 17.5035 16.9752 16.943 16.5163L15.9928 17.677C16.8115 18.3473 17.8597 18.75 19 18.75V17.25ZM16.943 16.5163C16.2135 15.9191 15.75 15.014 15.75 14H14.25C14.25 15.4827 14.9302 16.8071 15.9928 17.677L16.943 16.5163ZM16.328 16.3598C13.4364 16.9088 11.25 19.4483 11.25 22.5H12.75C12.75 20.1821 14.4109 18.2506 16.6078 17.8335L16.328 16.3598ZM22.25 14C22.25 15.014 21.7865 15.9191 21.057 16.5163L22.0072 17.677C23.0698 16.8071 23.75 15.4827 23.75 14H22.25ZM21.057 16.5163C20.4965 16.9752 19.7813 17.25 19 17.25V18.75C20.1403 18.75 21.1885 18.3473 22.0072 17.677L21.057 16.5163ZM21.3922 17.8335C23.5891 18.2506 25.25 20.1821 25.25 22.5H26.75C26.75 19.4483 24.5636 16.9088 21.672 16.3598L21.3922 17.8335ZM15.75 14V12H14.25V14H15.75ZM22.25 12V14H23.75V12H22.25Z" fill="#7C4FFF"/>
</svg>
