<svg width="37" height="37" viewBox="0 0 37 37" fill="none" xmlns="http://www.w3.org/2000/svg">
<circle cx="18.5" cy="18.5" r="18.5" fill="white"/>
<path d="M20.3924 11.4387C19.9189 10.9652 19.9189 10.1975 20.3924 9.72401L21.4093 8.70711C21.7998 8.31658 22.433 8.31658 22.8235 8.70711L28.2929 14.1765C28.6834 14.567 28.6834 15.2002 28.2929 15.5907L27.276 16.6076C26.8025 17.0811 26.0348 17.0811 25.5613 16.6076M20.3924 11.4387L12.6219 19.2154M20.3924 11.4387L25.5613 16.6076M25.5613 16.6076L22.9474 19.2154M12.6219 19.2154H22.9474M12.6219 19.2154L10.0607 21.7766C8.64023 23.1971 8.64955 25.5095 10.07 26.93C11.4905 28.3505 13.8029 28.3598 15.2234 26.9393L22.9474 19.2154" stroke="#819DB6" stroke-width="1.5" stroke-linecap="round" stroke-linejoin="round"/>
</svg>
