<svg width="38" height="37" viewBox="0 0 38 37" fill="none" xmlns="http://www.w3.org/2000/svg">
<circle cx="19" cy="18.5" r="18.5" fill="white"/>
<path d="M10.5 23.25C10.0858 23.25 9.75 23.5858 9.75 24C9.75 24.4142 10.0858 24.75 10.5 24.75V23.25ZM18 24.75C18.4142 24.75 18.75 24.4142 18.75 24C18.75 23.5858 18.4142 23.25 18 23.25V24.75ZM11.5 27.25C11.0858 27.25 10.75 27.5858 10.75 28C10.75 28.4142 11.0858 28.75 11.5 28.75V27.25ZM27.5 28.75C27.9142 28.75 28.25 28.4142 28.25 28C28.25 27.5858 27.9142 27.25 27.5 27.25V28.75ZM20.1569 10L20.6872 9.46967C20.5465 9.32902 20.3558 9.25 20.1569 9.25C19.9579 9.25 19.7672 9.32902 19.6265 9.46967L20.1569 10ZM22.9853 12.8284L23.5156 13.3588C23.6563 13.2181 23.7353 13.0273 23.7353 12.8284C23.7353 12.6295 23.6563 12.4387 23.5156 12.2981L22.9853 12.8284ZM16.7748 19.0389L16.2445 19.5692C16.3851 19.7099 16.5759 19.7889 16.7748 19.7889C16.9737 19.7889 17.1645 19.7099 17.3051 19.5692L16.7748 19.0389ZM13.9464 16.2105L13.4161 15.6801C13.1232 15.973 13.1232 16.4479 13.4161 16.7408L13.9464 16.2105ZM21.5711 11.4142L21.0407 11.9445V11.9445L21.5711 11.4142ZM23.0688 7.47159C22.7769 7.17764 22.3021 7.17592 22.0081 7.46776C21.7142 7.75959 21.7124 8.23446 22.0043 8.52841L23.0688 7.47159ZM24.4589 11.0008C24.7507 11.2947 25.2256 11.2965 25.5195 11.0046C25.8135 10.7128 25.8152 10.2379 25.5234 9.94397L24.4589 11.0008ZM17.3051 18.5086L14.4767 15.6801L13.4161 16.7408L16.2445 19.5692L17.3051 18.5086ZM14.4767 16.7408L20.6872 10.5303L19.6265 9.46967L13.4161 15.6801L14.4767 16.7408ZM26.75 20.9051C26.75 24.3913 23.8451 27.25 20.2211 27.25V28.75C24.6371 28.75 28.25 25.2557 28.25 20.9051H26.75ZM21.6454 14.7309C24.5487 15.3993 26.75 17.9328 26.75 20.9051H28.25C28.25 17.1675 25.4992 14.0789 21.982 13.2691L21.6454 14.7309ZM23.2353 8.70408L21.0425 10.8821L22.0996 11.9463L24.2924 9.76831L23.2353 8.70408ZM22.0043 8.52841L23.2316 9.7646L24.2961 8.70778L23.0688 7.47159L22.0043 8.52841ZM23.2316 9.7646L24.4589 11.0008L25.5234 9.94397L24.2961 8.70778L23.2316 9.7646ZM20.2211 27.25C17.6271 27.25 15.3947 25.7816 14.3407 23.6656L12.998 24.3344C14.3028 26.9539 17.0517 28.75 20.2211 28.75V27.25ZM10.5 24.75H13.6693V23.25H10.5V24.75ZM13.6693 24.75H18V23.25H13.6693V24.75ZM11.5 28.75H20.2211V27.25H11.5V28.75ZM20.2211 28.75H27.5V27.25H20.2211V28.75ZM22.455 12.2981L21.2834 13.4697L22.344 14.5303L23.5156 13.3588L22.455 12.2981ZM21.2834 13.4697L16.2445 18.5086L17.3051 19.5692L22.344 14.5303L21.2834 13.4697ZM19.6265 10.5303L21.0407 11.9445L22.1014 10.8839L20.6872 9.46967L19.6265 10.5303ZM21.0407 11.9445L22.455 13.3588L23.5156 12.2981L22.1014 10.8839L21.0407 11.9445Z" fill="#02B55C"/>
</svg>
