<svg width="124" height="17" viewBox="0 0 124 17" fill="none" xmlns="http://www.w3.org/2000/svg">
<g clip-path="url(#clip0_529_65485)">
<path d="M11.1936 0.12616L7.38413 6.13323L3.65714 0.12616H0L5.46667 8.5721H9.32698L14.8508 0.12616H11.1936Z" fill="#2F2E41"/>
<path d="M43.8096 12.4346V16.982H47.5175V12.4346H43.8096Z" fill="#2F2E41"/>
<path d="M59.1556 16.982H54.2477L50.4381 13.0894V8.01943H50.5461C52.6731 8.01943 54.0445 7.1424 54.0445 5.61661C54.0445 3.9947 52.5016 3.27986 50.5778 3.27986H47.5239V7.92332H43.8096V0H51.0921C54.4508 0 57.8858 1.75406 57.8858 5.49046C57.8858 8.43993 55.3461 10.194 52.4318 10.4223L59.1556 16.982Z" fill="#2F2E41"/>
<path d="M76.127 0.12616L72.3619 6.13323L68.5715 0.12616H64.9143L70.381 8.5721H74.2857L79.7842 0.12616H76.127Z" fill="#2F2E41"/>
<path d="M91.8666 4.87775C91.8666 5.95902 92.9777 6.3615 94.4063 6.92016L96.5079 7.74913C97.2466 8.062 97.9383 8.46598 98.565 8.95054C98.717 9.08083 98.8214 9.25325 98.8635 9.44312V9.65938C98.8635 9.68941 93.9936 9.62934 92.3619 9.5092C92.0659 9.49662 91.7722 9.45433 91.4857 9.38305C90.4063 9.1668 88.1523 6.75796 88.1523 4.87175C88.1523 1.91026 91.0603 -0.00599247 94.2222 -0.00599247C95.9071 -0.0241171 97.5621 0.415807 98.9904 1.2615V4.56539C97.732 3.69704 96.2346 3.19213 94.6793 3.11168C93.3333 3.11768 91.8666 3.6463 91.8666 4.87775Z" fill="#2F2E41"/>
<path d="M123.479 9.97174L118.648 0.12616H116.825L112 9.97174L111.556 10.8728H115.556L115.962 9.97174L117.733 5.82086L119.536 9.97174L119.943 10.8728H123.924L123.479 9.97174Z" fill="#2F2E41"/>
<path d="M9.36508 12.1583H5.47937V16.952H9.36508V12.1583Z" fill="#2F2E41"/>
<path d="M74.2984 11.8099H70.4127V16.982H74.2984V11.8099Z" fill="#2F2E41"/>
<path d="M124 13.8223H111.467V16.9519H124V13.8223Z" fill="#02B55C"/>
<path d="M33.3207 9.93569L28.4445 0H26.5969L21.7207 9.93569L21.2762 10.8428H25.327L25.7334 9.93569L27.5175 5.73074L29.3397 9.93569L29.7524 10.8428H33.7651L33.3207 9.93569Z" fill="#2F2E41"/>
<path d="M33.8476 13.8223H21.1936V16.982H33.8476V13.8223Z" fill="#02B55C"/>
<path d="M98.9524 11.906V17H87.854V14.0085H94.8699V11.906H98.9524Z" fill="#2F2E41"/>
</g>
<defs>
<clipPath id="clip0_529_65485">
<rect width="124" height="17" fill="white"/>
</clipPath>
</defs>
</svg>
